<svg width="200" height="200" viewBox="0 0 200 200" xmlns="http://www.w3.org/2000/svg">
  <defs>
    <clipPath id="circleClip">
      <circle cx="100" cy="100" r="95"/>
    </clipPath>
  </defs>
  
  <!-- Dış çerçeve - 3 halka -->
  <circle cx="100" cy="100" r="100" fill="none" stroke="#1e3a8a" stroke-width="1"/>
  <circle cx="100" cy="100" r="98" fill="none" stroke="#3b82f6" stroke-width="3"/>
  <circle cx="100" cy="100" r="95" fill="none" stroke="#1e3a8a" stroke-width="1"/>
  
  <!-- İç arka plan -->
  <circle cx="100" cy="100" r="94" fill="#f5f5dc"/>
  
  <!-- Üst yay metni: EN GARDE ESKRİM İSTANBUL -->
  <path d="M 25 65 A 45 45 0 0 1 175 65" fill="none" stroke="#1e3a8a" stroke-width="1" opacity="0.3"/>
  <text x="100" y="60" text-anchor="middle" font-family="Arial, sans-serif" font-size="8" font-weight="bold" fill="#1e3a8a" letter-spacing="1">EN GARDE</text>
  <text x="100" y="70" text-anchor="middle" font-family="Arial, sans-serif" font-size="10" font-weight="bold" fill="#1e3a8a" letter-spacing="1">ESKRİM</text>
  <text x="100" y="80" text-anchor="middle" font-family="Arial, sans-serif" font-size="8" font-weight="bold" fill="#1e3a8a" letter-spacing="1">İSTANBUL</text>
  
  <!-- Alt metin: 2025 -->
  <text x="100" y="150" text-anchor="middle" font-family="Arial, sans-serif" font-size="14" font-weight="bold" fill="#1e3a8a" letter-spacing="2">2025</text>
  
  <!-- Sol yıldızlar -->
  <g fill="#1e3a8a">
    <polygon points="40,110 42,112 44,110 42,108" transform="scale(0.8)"/>
    <polygon points="45,105 47,107 49,105 47,103" transform="scale(0.8)"/>
    <polygon points="50,100 52,102 54,100 52,98" transform="scale(0.8)"/>
    <polygon points="55,105 57,107 59,105 57,103" transform="scale(0.8)"/>
    <polygon points="60,110 62,112 64,110 62,108" transform="scale(0.8)"/>
  </g>
  
  <!-- Sağ yıldızlar -->
  <g fill="#1e3a8a">
    <polygon points="140,110 142,112 144,110 142,108" transform="scale(0.8)"/>
    <polygon points="145,105 147,107 149,105 147,103" transform="scale(0.8)"/>
    <polygon points="150,100 152,102 154,100 152,98" transform="scale(0.8)"/>
    <polygon points="155,105 157,107 159,105 157,103" transform="scale(0.8)"/>
    <polygon points="160,110 162,112 164,110 162,108" transform="scale(0.8)"/>
  </g>
  
  <!-- Şövalye ve At Figürü -->
  <g fill="#000000" clip-path="url(#circleClip)">
    <!-- At - daha detaylı -->
    <path d="M 70 130 Q 80 120 90 125 Q 100 130 110 125 Q 120 120 130 130 L 125 135 Q 115 140 105 145 Q 95 140 85 145 Q 75 140 65 135 Z" fill="#000000"/>
    
    <!-- At bacakları -->
    <rect x="75" y="135" width="3" height="8" fill="#000000"/>
    <rect x="85" y="135" width="3" height="8" fill="#000000"/>
    <rect x="105" y="135" width="3" height="8" fill="#000000"/>
    <rect x="115" y="135" width="3" height="8" fill="#000000"/>
    
    <!-- At yelesi -->
    <path d="M 80 125 Q 85 120 90 125" stroke="#000000" stroke-width="2" fill="none"/>
    <path d="M 85 123 Q 90 118 95 123" stroke="#000000" stroke-width="2" fill="none"/>
    
    <!-- Şövalye - daha detaylı -->
    <circle cx="100" cy="115" r="10" fill="#000000"/> <!-- Kafa -->
    
    <!-- Miğfer -->
    <path d="M 90 105 Q 100 100 110 105 L 108 115 Q 92 115 Z" fill="#000000"/>
    
    <!-- Miğfer tüyü -->
    <path d="M 100 100 Q 105 95 110 100" stroke="#000000" stroke-width="3" fill="none"/>
    <path d="M 102 98 Q 107 93 112 98" stroke="#000000" stroke-width="2" fill="none"/>
    
    <!-- Vücut -->
    <rect x="95" y="125" width="10" height="15" fill="#000000"/>
    
    <!-- Kollar -->
    <rect x="90" y="130" width="20" height="4" fill="#000000"/>
    
    <!-- Bacaklar -->
    <rect x="98" y="140" width="4" height="10" fill="#000000"/>
    
    <!-- Kılıç - daha uzun ve detaylı -->
    <line x1="110" y1="125" x2="140" y2="110" stroke="#000000" stroke-width="3"/>
    <rect x="138" y="108" width="6" height="8" fill="#000000"/> <!-- Kılıç ucu -->
    <rect x="108" y="123" width="4" height="6" fill="#000000"/> <!-- Kılıç kabzası -->
    
    <!-- Kalkan -->
    <ellipse cx="85" cy="130" rx="8" ry="12" fill="#000000"/>
    <ellipse cx="85" cy="130" rx="6" ry="10" fill="#f5f5dc"/>
  </g>
</svg> 