<svg width="200" height="200" viewBox="0 0 200 200" xmlns="http://www.w3.org/2000/svg">
  <defs>
    <clipPath id="circleClip">
      <circle cx="100" cy="100" r="95"/>
    </clipPath>
  </defs>
  
  <!-- Dış çerçeve - 3 halka -->
  <circle cx="100" cy="100" r="100" fill="none" stroke="#1e3a8a" stroke-width="2"/>
  <circle cx="100" cy="100" r="98" fill="none" stroke="#3b82f6" stroke-width="4"/>
  <circle cx="100" cy="100" r="95" fill="none" stroke="#1e3a8a" stroke-width="2"/>
  
  <!-- İç arka plan -->
  <circle cx="100" cy="100" r="94" fill="#f8fafc"/>
  
  <!-- Üst yay metni: EN GARDE ESKRİM İSTANBUL -->
  <path d="M 25 65 A 45 45 0 0 1 175 65" fill="none" stroke="#1e3a8a" stroke-width="1" opacity="0.3"/>
  <text x="100" y="60" text-anchor="middle" font-family="Arial, sans-serif" font-size="9" font-weight="bold" fill="#1e3a8a" letter-spacing="1">EN GARDE</text>
  <text x="100" y="72" text-anchor="middle" font-family="Arial, sans-serif" font-size="11" font-weight="bold" fill="#1e3a8a" letter-spacing="1">ESKRİM</text>
  <text x="100" y="84" text-anchor="middle" font-family="Arial, sans-serif" font-size="9" font-weight="bold" fill="#1e3a8a" letter-spacing="1">İSTANBUL</text>
  
  <!-- Alt metin: 2025 -->
  <text x="100" y="150" text-anchor="middle" font-family="Arial, sans-serif" font-size="16" font-weight="bold" fill="#1e3a8a" letter-spacing="2">2025</text>
  
  <!-- Sol yıldızlar - yay şeklinde -->
  <g fill="#1e3a8a">
    <polygon points="40,110 42,112 44,110 42,108" transform="scale(1)"/>
    <polygon points="45,105 47,107 49,105 47,103" transform="scale(1)"/>
    <polygon points="50,100 52,102 54,100 52,98" transform="scale(1)"/>
    <polygon points="55,105 57,107 59,105 57,103" transform="scale(1)"/>
    <polygon points="60,110 62,112 64,110 62,108" transform="scale(1)"/>
  </g>
  
  <!-- Sağ yıldızlar - yay şeklinde -->
  <g fill="#1e3a8a">
    <polygon points="140,110 142,112 144,110 142,108" transform="scale(1)"/>
    <polygon points="145,105 147,107 149,105 147,103" transform="scale(1)"/>
    <polygon points="150,100 152,102 154,100 152,98" transform="scale(1)"/>
    <polygon points="155,105 157,107 159,105 157,103" transform="scale(1)"/>
    <polygon points="160,110 162,112 164,110 162,108" transform="scale(1)"/>
  </g>
  
  <!-- Şövalye ve At Figürü - sola bakan -->
  <g fill="#1e3a8a" clip-path="url(#circleClip)">
    <!-- At - dinamik pozisyon, sola bakan -->
    <path d="M 130 130 Q 120 120 110 125 Q 100 130 90 125 Q 80 120 70 130 L 75 135 Q 85 140 95 145 Q 105 140 115 145 Q 125 140 135 135 Z" fill="#1e3a8a"/>
    
    <!-- At bacakları -->
    <rect x="125" y="135" width="3" height="8" fill="#1e3a8a"/>
    <rect x="115" y="135" width="3" height="8" fill="#1e3a8a"/>
    <rect x="95" y="135" width="3" height="8" fill="#1e3a8a"/>
    <rect x="85" y="135" width="3" height="8" fill="#1e3a8a"/>
    
    <!-- At yelesi - sola doğru -->
    <path d="M 120 125 Q 115 120 110 125" stroke="#1e3a8a" stroke-width="2" fill="none"/>
    <path d="M 115 123 Q 110 118 105 123" stroke="#1e3a8a" stroke-width="2" fill="none"/>
    
    <!-- Şövalye - sola bakan -->
    <circle cx="100" cy="115" r="10" fill="#1e3a8a"/> <!-- Kafa -->
    
    <!-- Miğfer - sola bakan -->
    <path d="M 110 105 Q 100 100 90 105 L 92 115 Q 108 115 Z" fill="#1e3a8a"/>
    
    <!-- Miğfer tüyü - sola doğru -->
    <path d="M 100 100 Q 95 95 90 100" stroke="#1e3a8a" stroke-width="3" fill="none"/>
    <path d="M 98 98 Q 93 93 88 98" stroke="#1e3a8a" stroke-width="2" fill="none"/>
    
    <!-- Vücut -->
    <rect x="95" y="125" width="10" height="15" fill="#1e3a8a"/>
    
    <!-- Kollar - sola doğru kılıç tutuyor -->
    <rect x="90" y="130" width="20" height="4" fill="#1e3a8a"/>
    
    <!-- Bacaklar -->
    <rect x="98" y="140" width="4" height="10" fill="#1e3a8a"/>
    
    <!-- Kılıç - sola doğru uzanan -->
    <line x1="90" y1="125" x2="60" y2="110" stroke="#1e3a8a" stroke-width="3"/>
    <rect x="58" y="108" width="6" height="8" fill="#1e3a8a"/> <!-- Kılıç ucu -->
    <rect x="88" y="123" width="4" height="6" fill="#1e3a8a"/> <!-- Kılıç kabzası -->
    
    <!-- Kalkan - sağ tarafta -->
    <ellipse cx="115" cy="130" rx="8" ry="12" fill="#1e3a8a"/>
    <ellipse cx="115" cy="130" rx="6" ry="10" fill="#f8fafc"/>
  </g>
</svg> 